<svg width="93" height="28" viewBox="0 0 93 28" fill="none" xmlns="http://www.w3.org/2000/svg">
<path fill-rule="evenodd" clip-rule="evenodd" d="M24.1802 0.896973H28.4113V27.0193H24.1802V0.896973ZM43.1281 18.7391C43.1281 22.7862 39.8168 23.1542 38.7131 23.1542C36.1376 23.1542 35.7697 20.7627 35.7697 19.475V9.35718H31.5387V19.291C31.5387 21.6825 32.2745 23.89 33.7462 25.1777C35.0339 26.4654 36.6895 27.0173 38.7131 27.0173C40.1848 27.0173 42.0244 26.6494 43.1281 25.5456V27.0173H47.3592V9.35718H43.1281V18.7391ZM51.4061 2.91919H55.6372V9.35779H58.7645V13.4049H55.6372V27.0179H51.4061V13.4049H48.2788V9.35779H51.4061V2.91919ZM72.0096 21.6844C71.0898 22.4203 69.802 22.9722 68.5143 22.9722C65.571 22.9722 63.5474 20.7646 63.5474 17.8213C63.5474 14.8779 65.571 12.8544 68.5143 12.8544C69.802 12.8544 71.0898 13.2223 72.0096 14.1421L72.5614 14.694L75.5048 11.9346L74.769 11.3827C73.1133 9.91101 70.9058 8.99121 68.5143 8.99121C63.3634 8.99121 59.5003 12.8544 59.5003 18.0052C59.5003 23.1561 63.3634 27.0193 68.5143 27.0193C70.9058 27.0193 73.1133 26.0995 74.769 24.6278L75.5048 24.0759L72.5614 21.1326L72.0096 21.6844ZM85.8063 8.99121C87.8298 8.99121 89.1176 9.54309 90.4053 10.8308C91.693 12.1185 92.2449 14.3261 92.2449 16.7175V26.8353H88.0138V16.5336C88.0138 16.4567 88.0145 16.3759 88.0152 16.2918V16.2905C88.026 14.9674 88.0432 12.8544 85.6223 12.8544C84.5186 12.8544 81.7592 13.2223 81.7592 17.2694V27.0193H77.5281V0.896973H81.7592V10.4629C82.8629 9.35913 84.3346 8.99121 85.8063 8.99121ZM68.3305 20.95C69.956 20.95 71.2738 19.6322 71.2738 18.0066C71.2738 16.381 69.956 15.0632 68.3305 15.0632C66.7049 15.0632 65.3871 16.381 65.3871 18.0066C65.3871 19.6322 66.7049 20.95 68.3305 20.95ZM12.2228 22.9731C14.6143 22.9731 16.8218 22.0533 18.2935 20.5816L18.8453 20.0297L21.6047 22.7891L21.0529 23.341C18.8453 25.7325 15.5341 27.0202 12.2228 27.0202C5.41626 27.0202 0.265381 21.5014 0.265381 14.327C0.265381 7.15254 5.41626 1.63374 12.4067 1.8177C15.718 1.8177 18.8453 3.10542 21.2368 5.4969L21.7887 6.04878L19.0293 8.80818L18.4774 8.2563C16.8218 6.60066 14.6143 5.68086 12.4067 5.68086C7.62378 5.68086 4.3125 9.36006 4.3125 14.327C4.3125 19.2939 7.62378 22.9731 12.2228 22.9731Z" fill="white"/>
</svg>
