<svg width="68" height="33" viewBox="0 0 68 33" fill="none" xmlns="http://www.w3.org/2000/svg">
<path d="M5.88898 16.6603C5.88898 22.4103 10.4998 27.0875 16.1838 27.0875H25.8004C26.4034 27.0875 26.873 26.5127 26.873 26.0055V6.89774C26.8735 6.3173 27.1014 5.76081 27.5067 5.35038C27.9119 4.93995 28.4613 4.70912 29.0344 4.70855C29.4094 4.7081 29.7781 4.80673 30.1041 4.99472C30.43 5.18272 30.7019 5.45356 30.8929 5.78051L42.9731 26.8763C43.076 27.0442 43.2299 27.1737 43.4117 27.2454C43.5935 27.3171 43.7933 27.3271 43.9812 27.2739C44.1691 27.2206 44.3348 27.1071 44.4535 26.9503C44.5722 26.7934 44.6374 26.6018 44.6394 26.4043V6.89774C44.6399 6.3173 44.8678 5.76081 45.273 5.35038C45.6783 4.93995 46.2277 4.70912 46.8008 4.70855C47.1758 4.7081 47.5445 4.80673 47.8705 4.99472C48.1964 5.18272 48.4683 5.45356 48.6592 5.78051L60.7274 26.8749C60.8303 27.0427 60.9841 27.1722 61.1658 27.2439C61.3476 27.3156 61.5473 27.3257 61.7352 27.2725C61.923 27.2194 62.0888 27.106 62.2075 26.9493C62.3262 26.7926 62.3916 26.6011 62.3937 26.4035V1.11332H58.6036V16.1667L51.5137 3.80902C50.5114 2.0732 48.6103 0.976807 46.5865 0.976807C43.4172 0.976807 40.8408 3.58127 40.8408 6.7914V16.1675L33.7508 3.80974C32.7457 2.07463 30.8446 0.978962 28.823 0.978962C25.6536 0.978962 23.0772 3.58342 23.0772 6.79356V22.1976C23.0794 22.758 22.663 23.2466 22.0572 23.248H16.2122C14.487 23.248 12.8325 22.5539 11.6126 21.3183C10.3927 20.0828 9.70742 18.407 9.70742 16.6596C9.70742 14.9123 10.3927 13.2365 11.6126 12.0009C12.8325 10.7654 14.487 10.0712 16.2122 10.0712H21.1081V6.23315H16.171C10.5069 6.23315 5.88898 10.9032 5.88898 16.6603ZM63.6549 1.11475V26.405C63.6543 26.9854 63.4264 27.5419 63.0212 27.9523C62.616 28.3628 62.0666 28.5936 61.4935 28.5942C61.1185 28.5947 60.7499 28.4962 60.4239 28.3083C60.098 28.1204 59.8261 27.8497 59.635 27.5229L47.5654 6.42714C47.4626 6.2593 47.3088 6.1298 47.127 6.05809C46.9453 5.98638 46.7455 5.97633 46.5577 6.02947C46.3698 6.0826 46.2041 6.19604 46.0853 6.35274C45.9666 6.50943 45.9013 6.70093 45.8992 6.89846V26.405C45.8986 26.9854 45.6707 27.5419 45.2655 27.9523C44.8603 28.3628 44.3108 28.5936 43.7378 28.5942C43.362 28.5947 42.9927 28.4955 42.6666 28.3064C42.3405 28.1173 42.069 27.845 41.8793 27.5165L29.7998 6.42714C29.6458 6.1613 29.3444 5.99605 29.0315 5.99605C28.7936 5.99681 28.5656 6.09289 28.3973 6.2633C28.2291 6.43372 28.1342 6.66464 28.1335 6.90564V26.0055C28.1335 27.2628 27.0425 28.3671 25.7983 28.3671H16.1831C13.1186 28.3641 10.1805 27.1297 8.01355 24.9349C5.84662 22.7401 4.62793 19.7642 4.62492 16.6603C4.62793 13.5564 5.84662 10.5805 8.01355 8.38575C10.1805 6.19096 13.1186 4.95659 16.1831 4.95355H21.1201V1.11475H16.1958C7.71911 1.11475 0.846924 8.07459 0.846924 16.6611C0.846924 25.2475 7.71201 32.2074 16.1958 32.2074H25.904C29.5813 32.2095 31.9463 30.0268 31.9335 26.0012V17.1338L39.0234 29.4915C40.0257 31.2274 41.9268 32.3237 43.9506 32.3237C47.12 32.3237 49.6963 29.7193 49.6963 26.5099V17.1338L56.7863 29.4915C57.7893 31.2274 59.6904 32.3237 61.7134 32.3237C64.8828 32.3237 67.4592 29.7193 67.4592 26.5099V1.11475H63.6549Z" fill="white"/>
</svg>
