<svg width="104" height="35" viewBox="0 0 104 35" fill="none" xmlns="http://www.w3.org/2000/svg">
<path d="M25.3575 12.9384H13.3186V16.4956H21.8501C21.4235 21.523 17.2526 23.6573 13.3186 23.6573C8.29451 23.6573 3.88657 19.6733 3.88657 14.1241C3.88657 8.7172 8.05752 4.54345 13.3186 4.54345C17.3474 4.54345 19.7646 7.10461 19.7646 7.10461L22.2767 4.49602C22.2767 4.49602 19.0537 0.938843 13.2238 0.938843C5.78246 0.986272 0 7.29433 0 14.0767C0 20.7642 5.40328 27.2619 13.4134 27.2619C20.4282 27.2619 25.5945 22.4242 25.5945 15.3098C25.5945 13.7921 25.3575 12.9384 25.3575 12.9384ZM35.2161 10.3772C30.2868 10.3772 26.732 14.219 26.732 18.7722C26.732 23.3253 30.1446 27.2619 35.2635 27.2619C39.861 27.2619 43.6528 23.7048 43.6528 18.867C43.7002 13.223 39.2923 10.3772 35.2161 10.3772ZM35.2635 13.6972C37.6808 13.6972 40.0032 15.6418 40.0032 18.8196C40.0032 21.9025 37.7282 23.9419 35.2635 23.9419C32.5619 23.9419 30.429 21.8076 30.429 18.8196C30.429 15.879 32.5619 13.6972 35.2635 13.6972ZM53.6536 10.3772C48.7243 10.3772 45.1695 14.219 45.1695 18.7722C45.1695 23.3253 48.5821 27.2619 53.701 27.2619C58.2985 27.2619 62.0903 23.7048 62.0903 18.867C62.1377 13.223 57.7298 10.3772 53.6536 10.3772ZM53.701 13.6972C56.1183 13.6972 58.4407 15.6418 58.4407 18.8196C58.4407 21.9025 56.1657 23.9419 53.701 23.9419C50.9994 23.9419 48.8665 21.8076 48.8665 18.8196C48.9139 15.879 50.9994 13.6972 53.701 13.6972ZM71.7593 10.3772C67.2092 10.3772 63.6544 14.3613 63.6544 18.8196C63.6544 23.8945 67.778 27.2619 71.6646 27.2619C74.0818 27.2619 75.3615 26.3134 76.3095 25.2225V26.8825C76.3095 29.7757 74.5558 31.5306 71.8541 31.5306C69.2947 31.5306 67.9676 29.6334 67.541 28.5425L64.318 29.918C65.4555 32.3369 67.778 34.898 71.9015 34.898C76.4043 34.898 79.8643 32.0523 79.8643 26.0762V10.8989H76.3095V12.3218C75.2193 11.1361 73.75 10.3772 71.7593 10.3772ZM72.0911 13.6972C74.3188 13.6972 76.5939 15.5944 76.5939 18.8196C76.5939 22.1396 74.3188 23.9419 72.0437 23.9419C69.6265 23.9419 67.3988 21.9973 67.3988 18.867C67.3514 15.5944 69.7213 13.6972 72.0911 13.6972ZM95.5527 10.3298C91.287 10.3298 87.6848 13.7447 87.6848 18.7722C87.6848 24.0842 91.6662 27.2619 95.9793 27.2619C99.5341 27.2619 101.762 25.3174 103.041 23.5625L100.103 21.6179C99.3445 22.8036 98.0648 23.9419 95.9793 23.9419C93.6095 23.9419 92.5193 22.6613 91.8558 21.3807L103.184 16.6853L102.615 15.3098C101.477 12.6064 98.9179 10.3298 95.5527 10.3298ZM95.6949 13.6024C97.259 13.6024 98.3492 14.4087 98.8232 15.4047L91.287 18.5824C90.9552 16.1161 93.2777 13.6024 95.6949 13.6024ZM82.3289 26.7402H86.0259V1.88742H82.3289V26.7402Z" fill="white"/>
</svg>
