<svg width="133" height="40" viewBox="0 0 133 40" fill="none" xmlns="http://www.w3.org/2000/svg">
<path fill-rule="evenodd" clip-rule="evenodd" d="M21.5815 4.51292C21.5815 2.24223 23.3291 0.414307 25.4999 0.414307C27.6707 0.414307 29.4183 2.24223 29.4183 4.51292V14.6014C29.4183 16.8721 27.6707 18.7 25.4999 18.7C23.3291 18.7 21.5815 16.8721 21.5815 14.6014V4.51292ZM73.0908 31.5184L69.5038 31.5118L69.5024 31.512C69.1249 31.4989 68.9341 31.3241 68.8924 30.9647C68.8507 30.6052 68.721 11.6161 68.9139 3.37965C68.9146 3.23349 69.0191 3.10758 69.1647 3.07754C69.9543 2.87653 72.4176 2.84871 73.282 2.96312C73.4731 2.98755 73.5944 3.09047 73.6059 3.36828C73.7422 6.56201 73.8354 26.7989 73.6194 31.0495C73.6165 31.1148 73.6005 31.1789 73.5723 31.238C73.5441 31.297 73.5042 31.3498 73.4552 31.3931C73.3551 31.4815 73.2241 31.5265 73.0908 31.5184ZM58.3438 11.2874C53.324 11.2874 50.5648 13.885 50.5648 17.6064L50.5953 17.6034C50.5953 21.4636 53.7368 22.728 57.6429 23.4516C60.0732 23.9056 61.6108 24.5315 61.6322 25.6048C61.6573 26.8236 60.4837 27.5455 58.5439 27.5912L58.0404 27.588C55.8695 27.5161 54.0145 26.4037 52.8775 25.7093C52.5532 25.51 51.9267 25.5604 51.689 25.8791C51.2616 26.3694 50.7198 27.3036 50.3972 28.1173C50.1164 28.7478 50.6417 29.2739 50.6882 29.313C52.0677 30.4844 54.6405 31.6868 58.2676 31.7586C63.7528 31.8549 66.5785 28.7167 66.5785 25.2453C66.5785 21.158 63.5235 19.9932 59.481 19.3122C57.3083 18.9474 55.5164 18.4901 55.5496 17.2224C55.5535 17.0327 55.5947 16.8419 55.6711 16.6507C56.0501 15.6886 57.1205 15.2507 58.4037 15.2229C58.7825 15.2148 59.1564 15.2342 59.5139 15.2718C60.8961 15.4165 62.4135 16.1738 63.3883 16.6604L63.5032 16.7177C63.7691 16.8517 64.2894 16.8993 64.4938 16.5283L65.5993 14.2559C65.7673 13.8683 65.627 13.4179 65.2667 13.1891C63.9088 12.248 61.4022 11.2874 58.3438 11.2874ZM80.7209 25.7925C80.7941 23.6769 83.3189 22.9369 86.0732 22.901L86.0728 22.9027C86.8107 22.932 87.2446 23.0072 87.8298 23.2488C87.9478 23.2965 88.2153 23.5509 88.2186 23.6818C88.232 24.3075 88.1987 25.7694 87.966 26.1615C87.3393 27.2155 85.9164 28.011 84.0515 28.1873C82.1054 28.2951 80.7209 27.4701 80.7209 25.7925ZM84.8212 11.5786C80.732 11.4855 78.1972 13.2481 76.909 14.3803L76.9027 14.3479C76.7365 14.4949 76.6066 14.7287 76.6982 15.0096C76.7898 15.2904 77.9798 17.0454 78.4518 17.6462C78.5484 17.7687 78.8457 17.8487 79.0369 17.7394C79.1217 17.6907 79.2191 17.6334 79.3272 17.5698C80.2533 17.0253 81.9728 16.0142 83.4285 15.9016C83.8514 15.8716 84.2762 15.8827 84.6968 15.9343C86.7412 16.1842 87.7135 17.1072 87.963 18.254C88.0625 18.705 88.0858 19.6541 88.0792 20.1522C88.076 20.3026 87.8548 20.3645 87.7468 20.3222C86.0546 19.6605 83.8175 19.4024 81.8327 19.6932C78.7343 20.1475 75.9137 22.0766 75.9037 25.9858C75.8939 29.8036 79.218 31.7312 82.5525 31.7312C84.7468 31.7312 86.811 31.0777 88.0709 29.7707C88.121 29.7381 88.3154 29.7315 88.3203 29.934L88.3485 30.9436C88.3552 31.1868 88.4102 31.4171 88.8838 31.4399L92.7502 31.4317C92.8081 31.4419 92.8677 31.4382 92.9239 31.4208C92.9801 31.4033 93.0313 31.3727 93.0733 31.3315C93.1577 31.2482 93.1953 31.1293 93.1739 31.0135C93.2201 29.3177 93.3995 22.5092 93.2914 20.0684C93.0273 14.1631 90.19 11.6881 84.8212 11.5786ZM105.141 11.544C98.8631 11.5865 94.997 16.1866 95.0302 21.6397L95.0153 21.6201C95.047 27.0926 98.4278 31.8038 105.243 31.755C108.497 31.7369 110.957 30.4055 112.231 28.8212C112.342 28.6839 112.571 28.3408 112.264 27.991C111.793 27.3754 110.947 26.4605 110.357 25.8675C110.056 25.6355 109.784 25.5246 109.521 25.7499C108.698 26.4933 107.139 27.4014 105.532 27.3622C102.44 27.2919 100.303 25.3202 100.279 21.7263C100.253 17.9835 102.504 15.948 105.522 15.948C107.186 15.948 108.878 16.6605 109.767 17.2437C109.812 17.2729 109.856 17.3034 109.899 17.3334C110.163 17.518 110.399 17.6825 110.618 17.4072C111.285 16.5362 111.876 15.6092 112.383 14.6365C112.455 14.4421 112.505 14.2804 112.405 14.0876C111.903 13.2642 109.057 11.5197 105.141 11.544ZM132.326 30.7911C131.278 31.0262 127.863 31.4903 127.544 31.5133L127.533 31.5419C127.373 31.5469 127.163 31.537 126.984 31.2854L124.602 27.9026C124.112 27.1887 123.607 26.4427 123.142 25.7556L123.14 25.7519L123.138 25.7485L123.137 25.7471L123.136 25.7469C122.374 24.6202 121.72 23.6535 121.416 23.2502C121.316 23.1164 121.16 23.1097 121.06 23.2044L119.328 24.9886C119.245 25.0572 119.195 25.3151 119.195 25.3151L119.122 31.131C119.122 31.131 119.062 31.4691 118.573 31.4691C117.579 31.4871 115.453 31.4902 114.594 31.4414C114.379 31.4261 114.211 31.2515 114.208 31.0395C114.089 28.0073 113.806 6.33769 114.005 3.38585C114.056 3.14331 114.251 2.95588 114.499 2.91212L118.414 2.92035C118.582 2.92819 118.881 3.11274 118.887 3.3579L119.048 19.0486C119.05 19.3996 119.193 19.4538 119.442 19.2089L126.938 11.8982C127.281 11.5716 127.73 11.5438 128.102 11.6206C128.985 11.8053 130.537 12.1566 131.498 12.4374C131.994 12.583 132.346 12.8524 131.761 13.4732L125.268 19.8706C125.135 20.0012 125.129 20.1644 125.252 20.328L128.8 24.7991L132.535 30.3044C132.679 30.5183 132.586 30.7323 132.326 30.7911ZM11.1326 25.4128C11.1326 23.1421 12.8802 21.3142 15.0509 21.3142C17.2217 21.3142 18.9693 23.1421 18.9693 25.4128V35.5013C18.9693 37.7719 17.2217 39.5999 15.0509 39.5999C12.8802 39.5999 11.1326 37.7719 11.1326 35.5013V25.4128ZM21.5815 25.2326C21.5815 27.4034 23.4096 29.1509 25.6802 29.1509H35.7689C38.0396 29.1509 39.8675 27.4034 39.8675 25.2326C39.8675 23.0618 38.0395 21.3142 35.7689 21.3142H25.6802C23.4095 21.3142 21.5815 23.0618 21.5815 25.2326ZM0.683594 14.7826C0.683594 16.9534 2.51151 18.701 4.7822 18.701H14.8707C17.1414 18.701 18.9693 16.9534 18.9693 14.7826C18.9693 12.6118 17.1414 10.8643 14.8707 10.8643H4.7822C2.51151 10.8643 0.683594 12.6118 0.683594 14.7826ZM21.5815 35.6789C21.5815 37.8496 23.3291 39.5972 25.4999 39.5972C27.6707 39.5972 29.4183 37.8496 29.4183 35.6789C29.4183 33.5081 27.6707 31.7605 25.4999 31.7605H21.5815V35.6789ZM32.0305 18.701H35.9489C38.1197 18.701 39.8673 16.9534 39.8673 14.7826C39.8673 12.6118 38.1197 10.8643 35.9489 10.8643C33.7781 10.8643 32.0305 12.6118 32.0305 14.7826V18.701ZM4.60196 21.3142H8.52033V25.2326C8.52033 27.4034 6.77274 29.1509 4.60196 29.1509C2.43119 29.1509 0.683594 27.4034 0.683594 25.2326C0.683594 23.0618 2.43119 21.3142 4.60196 21.3142ZM18.9693 8.25104V4.33267C18.9693 2.1619 17.2217 0.414307 15.051 0.414307C12.8802 0.414307 11.1326 2.1619 11.1326 4.33267C11.1326 6.50345 12.8802 8.25104 15.051 8.25104H18.9693Z" fill="white"/>
</svg>
